<svg xmlns="http://www.w3.org/2000/svg" width="512" height="512" viewBox="0 0 512 512" role="img" aria-label="Claude Code Plugin for Codex logo">
  <rect width="512" height="512" rx="96" fill="#0D0D0D"/>
  <rect x="32" y="32" width="448" height="448" rx="72" fill="#7B39FE" opacity="0.12"/>
  <path d="M172 155c-47 0-83 40-83 101s36 101 83 101c23 0 43-8 60-25l-33-32c-7 7-15 11-27 11-23 0-39-21-39-55s16-55 39-55c12 0 20 4 27 11l33-32c-17-17-37-25-60-25zm168 0c-47 0-83 40-83 101s36 101 83 101c23 0 43-8 60-25l-33-32c-7 7-15 11-27 11-23 0-39-21-39-55s16-55 39-55c12 0 20 4 27 11l33-32c-17-17-37-25-60-25z" fill="#FFFFFF"/>
  <text x="256" y="412" text-anchor="middle" font-family="SF Pro Display, Inter, Arial, sans-serif" font-size="34" font-weight="700" fill="#FFFFFF">Claude Code</text>
  <text x="256" y="448" text-anchor="middle" font-family="SF Pro Display, Inter, Arial, sans-serif" font-size="22" fill="#D9D9D9">Plugin for Codex</text>
</svg>
